HIERARCHY
ROOT HipCenter
{
    OFFSET 0.0 0.0 -0.0
    CHANNELS 6 Xposition Yposition Zposition Zrotation Xrotation Yrotation
    JOINT Spine
    {
        OFFSET 0.0 0.11599269509315491 0.0
        CHANNELS 3 Zrotation Xrotation Yrotation
        JOINT ShoulderCenter
        {
            OFFSET 0.0 0.3325485587120056 0.0
            CHANNELS 3 Zrotation Xrotation Yrotation
            JOINT LeftShoulder
            {
                OFFSET 0.18781208992004395 0.0 0.0
                CHANNELS 3 Zrotation Xrotation Yrotation
                JOINT LeftElbow
                {
                    OFFSET 0.2928585410118103 0.0 0.0
                    CHANNELS 3 Zrotation Xrotation Yrotation
                    JOINT LeftWrist
                    {
                        OFFSET 0.3031957149505615 0.0 0.0
                        CHANNELS 3 Zrotation Xrotation Yrotation
                        JOINT LeftHand
                        {
                            OFFSET 0.03628447651863098 0.0 0.0
                            CHANNELS 3 Zrotation Xrotation Yrotation
                            End Site
                            {
                                OFFSET 0.014513790607452393 0.0 0.0
                            }
                        }
                    }
                }
            }
            JOINT RightShoulder
            {
                OFFSET -0.18781208992004395 0.0 0.0
                CHANNELS 3 Zrotation Xrotation Yrotation
                JOINT RightElbow
                {
                    OFFSET -0.2928585410118103 0.0 0.0
                    CHANNELS 3 Zrotation Xrotation Yrotation
                    JOINT RightWrist
                    {
                        OFFSET -0.3031957149505615 0.0 0.0
                        CHANNELS 3 Zrotation Xrotation Yrotation
                        JOINT RightHand
                        {
                            OFFSET -0.03628447651863098 0.0 0.0
                            CHANNELS 3 Zrotation Xrotation Yrotation
                            End Site
                            {
                                OFFSET -0.014513790607452393 0.0 0.0
                            }
                        }
                    }
                }
            }
            End Site
            {
                OFFSET 0.0 0.13301944732666016 0.0
            }
        }
    }
    JOINT LeftHip
    {
        OFFSET 0.13834136724472046 0.0 0.0
        CHANNELS 3 Zrotation Xrotation Yrotation
        JOINT LeftKnee
        {
            OFFSET 0.0 -0.4246252775192261 0.0
            CHANNELS 3 Zrotation Xrotation Yrotation
            JOINT LeftAnkle
            {
                OFFSET 0.0 -0.431373655796051 0.0
                CHANNELS 3 Zrotation Xrotation Yrotation
                JOINT LeftFoot
                {
                    OFFSET 0.0 -0.13054156303405762 0.0
                    CHANNELS 3 Zrotation Xrotation Yrotation
                    End Site
                    {
                        OFFSET 0.0 0.0 0.05221661925315857
                    }
                }
            }
        }
    }
    JOINT RightHip
    {
        OFFSET -0.13834136724472046 0.0 0.0
        CHANNELS 3 Zrotation Xrotation Yrotation
        JOINT RightKnee
        {
            OFFSET 0.0 -0.4246252775192261 0.0
            CHANNELS 3 Zrotation Xrotation Yrotation
            JOINT RightAnkle
            {
                OFFSET 0.0 -0.431373655796051 0.0
                CHANNELS 3 Zrotation Xrotation Yrotation
                JOINT RightFoot
                {
                    OFFSET 0.0 -0.13054156303405762 0.0
                    CHANNELS 3 Zrotation Xrotation Yrotation
                    End Site
                    {
                        OFFSET 0.0 0.0 0.05221661925315857
                    }
                }
            }
        }
    }
}
MOTION
Frames: 4
Frame Time: 0.03333333333333333
0.11800000071525574 -0.1509999930858612 1.5490000247955322 27.407566885217918 -74.67712322101242 -146.88685191507497 1.6013110728456266 2.6916765325128846 -0.8004616863506592 -3.1939443513072746e-07 3.933040774147654e-08 -2.4337666839701866 102.00615419280606 4.0385240296688405 -151.52175510035113 -1.982231538911373e-06 2.646911021117555e-06 70.18321595411031 7.418325802347408e-06 -47.205282687877464 34.64254482456738 -6.3611093629270335e-15 -2.648343778830095e-31 4.770832022195275e-15 -106.12559255272481 -4.477649997438082 168.35093484081997 -6.092622897715853e-07 -8.208614138733468e-07 -114.44821910394165 6.3670834850686195e-06 -49.220358056317494 -20.398973608746306 -6.361109362927035e-15 1.3241718894150476e-31 -2.3854160110976384e-15 6.160725888575152 -53.66022475052469 11.509704614252495 8.133433977495711 37.79645620375166 -66.88874635926625 71.65207381053892 -48.13597616789616 129.4630887703041 0.0 0.0 6.1623246953355635e-15 -176.29530721492225 -53.31043797994069 138.94396396535063 -61.96852207745714 28.01125695620684 83.8088186223036 -49.236320111300195 -75.14280195684786 -111.7481143896354 -3.180554681463516e-15 -8.827812596100317e-32 3.180554681463516e-15
0.12600000202655792 -0.13600000739097595 1.4450000524520874 49.89907400785765 -77.6025073322295 -122.87816986136808 0.5927359494721484 2.2067040556891984 -0.585402612258281 -7.365759960407665e-07 2.1478201842532625e-07 -2.12973599374033 103.46618692758923 3.2966121587155506 -142.33793316094628 3.5491584058113803e-07 3.149109312335374e-06 69.77375862143136 -3.0491819493924977e-06 -49.76745598058529 35.44743256192363 0.0 0.0 0.0 -109.98920401575421 -5.800921699358578 159.05263837390922 6.0789625768181325e-06 2.0303341915709134e-07 -115.06396583797249 1.0221885907765239e-06 -50.11290950060178 -21.326527987367516 0.0 0.0 -7.951386703658792e-16 7.089099157333429 -52.852930662543095 10.292467121781453 4.3278757738916225 31.92435446988925 -57.53183057939928 58.46333938933629 -40.1791700293797 122.08004419829604 0.0 0.0 8.299259871943863e-15 -174.3162645878653 -53.582585105652186 139.4532521796367 -64.69817253471672 29.08193067288691 91.00004071241726 -79.93688459436832 -66.31668510439577 -143.2944125498569 0.0 0.0 -3.1805546814635168e-15
0.13099999725818634 -0.11400000005960464 1.343999981880188 82.23479380281621 -78.97854757087043 -88.34892470821725 -2.0110014972302213 1.8268738453955649 -0.3589474634539003 9.153847256864747e-07 -4.3816295989900285e-07 -2.3990442784068 105.26575120137525 2.775821291249581 -131.30890313145397 6.624099363295243e-07 9.452651036543295e-07 68.26146142391961 3.5827714593477474e-06 -43.991189807523014 35.62196826722791 6.3611093629270335e-15 5.29668755766019e-31 9.54166404439055e-15 -114.28091675596333 -4.227847083839142 148.27612416755642 1.7252204949073077e-07 -5.531528405995182e-06 -114.79218561143955 2.5974905745401495e-06 -51.17493675142093 -21.47672895668421 -2.648343778830095e-31 6.361109362927033e-15 4.770832022195274e-15 6.429910656918989 -55.53341518920383 13.211980514782018 3.85080037443925 35.71388257633518 -57.33236553010031 63.53942582169954 -31.607593674995485 129.06012096300188 -8.13813973702998e-32 -1.590277340731758e-15 -5.864147693948358e-15 -171.44620307006994 -54.79525936749343 141.1028989866829 -62.96409342596663 27.940329509370294 91.57580217018818 -88.40021023619342 -61.04965762963301 -153.6156540299518 -6.361109362927033e-15 3.531125038440127e-31 -6.361109362927033e-15
0.13300000131130219 -0.08699999749660492 1.2430000305175781 109.79888173554426 -76.76793095402054 -60.079480052145776 -4.140555648079406 2.9563798617951336 -0.4120638044964457 -4.8707217199755615e-08 -3.232959686356259e-06 -1.2884871331623666 106.79305847892466 2.7811997156920243 -118.5584839837741 -9.896828396130152e-07 2.4797605825568766e-06 65.55274504765535 1.1978064826274316e-06 -46.18568868881605 37.74479869904195 0.0 0.0 0.0 -118.91189218238856 0.6543709790204485 137.0462974847067 7.109790132340379e-07 7.389874644252889e-07 -113.06716108299402 -2.2309142676180497e-06 -49.765899425111925 -23.482728813507162 2.2069531490250793e-32 1.5902773407317588e-15 -1.5902773407317588e-15 8.322955220092062 -57.76568592091033 19.391086494662098 8.563124798832876 44.46975368477207 -67.89835776140012 66.92904737441384 -31.90585973321008 124.95004476598426 -4.06906986851499e-32 -7.951386703658791e-16 -5.8641476939483585e-15 -169.53881501368082 -58.138354098460155 142.82482658627103 -56.936768819145925 26.99064975023627 83.35477757670202 -89.76006985193118 -63.926246220073565 -155.0455176366476 0.0 0.0 -6.3611093629270335e-15
